<?xml version="1.0" encoding="UTF-8"?>
<svg id="Layer_1" xmlns="http://www.w3.org/2000/svg" version="1.1" viewBox="0 0 200.1 125.34">
  <!-- Generator: Adobe Illustrator 29.3.1, SVG Export Plug-In . SVG Version: 2.1.0 Build 151)  -->
  <defs>
    <style>
      .st0 {
        fill: #eb2126;
      }

      .st1 {
        fill: #144a8f;
      }

      .st2 {
        fill: #fff;
      }

      .st3 {
        fill: #a62126;
      }

      .st4 {
        fill: #eb2628;
      }

      .st5 {
        fill: #2494d1;
      }
    </style>
  </defs>
  <g>
    <path class="st2" d="M46.71,79.08l-2.33,5.48-.39,5.39h5.4l1.05-.59,3.04.11.05,1.44h5.66l.41-1.44h4.27s-1.2-10.52-3.23-11.93c-7.76,5.27-13.92,1.54-13.92,1.54"/>
    <path class="st5" d="M60.73,85.23l.31,4.01h-1.5l1.18-4.01Z"/>
    <path class="st5" d="M45.9,80.59s4.69,2.8,10.32,0c4.49-2.24-9.52-1.51-9.52-1.51l-.8,1.51h0Z"/>
    <path class="st0" d="M63.9,91.69h-4.59l.28-2.23h4.27s.05,1.5.04,2.23Z"/>
    <path class="st1" d="M63.9,92.41h-4.59c-.21,0-.4-.09-.54-.24-.14-.15-.2-.36-.17-.56l.28-2.22c.04-.36.35-.63.71-.63h4.27c.39,0,.71.31.72.7,0,0,.05,1.52.04,2.25,0,.39-.32.71-.72.71h0ZM60.12,90.98h3.05c0-.27,0-.54-.02-.79h-2.94l-.1.79h0Z"/>
    <path class="st5" d="M62.33,78.09s3.18-4.2,8.16-3.03c4.98,1.17,6.28-1.79,6.28-1.79,0,0-2.47,9.06-8.81,6.56,0,0,.97.82,1.87,1.6-1.9,1.37-3.63,2.18-7.04.12"/>
    <path class="st2" d="M62.21,78.37s2.91-4.29,6.99-3.33c4.09.96,6.54-.06,6.54-.06,0,0-2.84,5.82-7.37,3.13-.79-.57-1.85-.44-2.36.28-.52.72-.29,1.76.49,2.33-1.19.48-2.78-.13-3.64-.7"/>
    <path class="st5" d="M48.02,79.69s.5-1.28-1.32-.61c-1.81.67-2.98,10.9-2.98,10.9h.81c.45,0,1.34-.08,1.31-.53,0,0,.06-3.02.27-4.71.42-1.55,1.91-5.06,1.91-5.06"/>
    <path class="st2" d="M69.84,55.51c0,9.77-7.79,25.08-17.39,25.08s-17.39-15.31-17.39-25.08,7.79-13.69,17.39-13.69,17.39,3.92,17.39,13.69Z"/>
    <path class="st1" d="M52.45,81.31c-10,0-18.11-15.61-18.11-25.8,0-9.15,6.6-14.4,18.11-14.4s18.11,5.25,18.11,14.4c0,10.19-8.11,25.8-18.11,25.8ZM52.45,42.55c-5.01,0-16.67,1.26-16.67,12.97,0,9.4,7.63,24.36,16.67,24.36s16.67-14.96,16.67-24.36c0-11.7-11.66-12.97-16.67-12.97Z"/>
    <path class="st5" d="M37.55,53.88s-1.71.27-2.55-.08c-1.13-.47.7-1.88.7-1.88l1.84,1.96h0Z"/>
    <path class="st5" d="M56.63,52.06c0,2.18-1.43,2.91-4.13,3.93-3.06,0-9.23-1.75-9.23-3.93s6.74-3.94,9.8-3.94,3.57,1.77,3.57,3.94Z"/>
    <path class="st5" d="M55.08,71.67s-.95-3.96,2.03-5.29c-.56,1.52-1.73,4.83-1,5.99.73,1.17-1.03-.7-1.03-.7"/>
    <path class="st1" d="M52.45,81.31c-10,0-18.11-15.61-18.11-25.8,0-9.15,6.6-14.4,18.11-14.4s18.11,5.25,18.11,14.4c0,10.19-8.11,25.8-18.11,25.8ZM52.45,42.55c-5.01,0-16.67,1.26-16.67,12.97,0,9.4,7.63,24.36,16.67,24.36s16.67-14.96,16.67-24.36c0-11.7-11.66-12.97-16.67-12.97Z"/>
    <path class="st5" d="M46.89,58.93s.97,4.15,7.47,4.76c.44.04.69-.49.46-.86-.31-.48-1.28-1.27-1.3-1.91,1.44.17,3.78.87,5.01.2.38-.2.35-.75-.04-.93-.8-.36-.76-1.7-1.13-2.39"/>
    <path class="st2" d="M47.08,57.62s.56,4.56,8.65,3.97c-.48-.62-.99-1.29-1.01-2.2,1.61.19,3.63.23,4.65-.97-.95-.17-2.02-.9-2.47-1.73"/>
    <path class="st1" d="M54.33,62.36c-7.3,0-7.93-4.46-7.96-4.66-.05-.39.23-.75.63-.8.39-.05.75.23.8.62.02.16.58,3.4,6.53,3.4h.08c-.23-.43-.4-.93-.41-1.51,0-.21.08-.41.23-.55.15-.14.36-.21.57-.18,1.3.15,2.29.12,3.01-.1-.65-.39-1.22-.95-1.54-1.54-.19-.35-.06-.79.29-.97.35-.19.79-.06.97.29.33.62,1.21,1.23,1.96,1.36.25.04.46.22.55.46.09.24.04.51-.13.71-1.03,1.2-2.76,1.38-4.27,1.3.16.33.4.64.65.96.16.21.19.49.09.73-.11.24-.34.4-.6.42-.51.04-1,.05-1.46.05h0Z"/>
    <path class="st2" d="M57.83,51.26c0,1.42-2.41,4.04-5.37,4.04s-5.37-2.62-5.37-4.04,2.15-19.53,5.12-19.53,5.63,18.11,5.63,19.53Z"/>
    <path class="st1" d="M52.45,56.02c-3.3,0-6.09-2.92-6.09-4.76,0-.2,1.82-20.24,5.84-20.24s6.35,20.04,6.35,20.24c0,1.83-2.79,4.76-6.09,4.76ZM52.2,32.46c-1.84,0-4.4,15.98-4.4,18.81,0,.96,2.01,3.32,4.65,3.32s4.65-2.36,4.65-3.32c0-.64-.66-5.5-1.68-10.14-1.86-8.43-3.21-8.67-3.22-8.67Z"/>
    <path class="st1" d="M55.68,76.73c.08.38-.55-.02-1.2.11-.65.13-1.07.74-1.15.36s.31-1.17.96-1.3c.65-.13,1.31.46,1.39.84"/>
    <path class="st1" d="M49.28,76.73c-.08.38.55-.02,1.2.11.65.13,1.07.74,1.15.36s-.31-1.17-.96-1.3c-.65-.13-1.31.46-1.39.84"/>
    <path class="st2" d="M42.45,45.39s-4.25-2.1-8.18-1.85c-1.39,4.04.2,8.07,3.23,9.65"/>
    <path class="st1" d="M37.5,53.9c-.11,0-.23-.03-.33-.08-3.49-1.81-5.03-6.33-3.58-10.52.1-.27.34-.46.63-.48,4.08-.27,8.36,1.83,8.54,1.92.36.18.5.61.32.96-.18.36-.61.5-.96.33-.04-.02-3.78-1.84-7.32-1.8-.96,3.38.3,6.89,3.03,8.31.35.18.49.62.31.97-.13.25-.38.39-.64.39h0Z"/>
    <path class="st5" d="M35.65,46.23c-.1.6.03,3.12,2.26,4.88.09.07.21-.02.17-.12-.18-.56-.25-.91-.28-1.21,0-.11.11-.18.2-.12.21.14.46.24.95.13.16-.03.23-.21.16-.35-.08-.15-.19-.32-.23-.54-.02-.14.09-.26.23-.26.85.03,1.52.14,2.05-.25"/>
    <path class="st2" d="M40.88,47.87s-2.11-1.04-4.63-1.47l4.63,1.47Z"/>
    <path class="st1" d="M40.88,48.59c-.11,0-.21-.02-.32-.07-.02-.01-2.05-1-4.43-1.41-.39-.07-.65-.44-.59-.83.07-.39.44-.65.83-.59,2.59.44,4.74,1.49,4.83,1.54.36.18.5.61.33.96-.12.25-.38.4-.65.4Z"/>
    <path class="st2" d="M62.46,45.39s4.25-2.1,8.18-1.85c1.39,4.04-.2,8.07-3.23,9.65"/>
    <path class="st1" d="M67.4,53.9c-.26,0-.51-.14-.64-.39-.18-.35-.05-.79.31-.97,2.73-1.42,3.99-4.93,3.03-8.31-3.56-.06-7.28,1.78-7.32,1.8-.36.18-.79.03-.96-.33-.18-.36-.03-.79.33-.96.18-.09,4.47-2.19,8.54-1.92.29.02.54.21.63.48,1.45,4.19-.09,8.71-3.58,10.52-.11.05-.22.08-.33.08h0Z"/>
    <path class="st5" d="M69.25,46.23c.1.6-.03,3.12-2.26,4.88-.09.07-.21-.02-.17-.12.18-.56.25-.91.28-1.21,0-.11-.11-.18-.2-.12-.21.14-.46.24-.95.13-.16-.03-.24-.21-.16-.35.08-.15.19-.32.23-.54.02-.14-.09-.26-.23-.26-.85.03-1.52.14-2.05-.25"/>
    <path class="st2" d="M64.03,47.87s2.11-1.04,4.63-1.47l-4.63,1.47Z"/>
    <path class="st1" d="M64.03,48.59c-.26,0-.52-.15-.65-.4-.18-.36-.03-.79.33-.96.09-.04,2.23-1.1,4.83-1.54.38-.06.76.2.83.59.07.39-.2.76-.59.83-2.38.4-4.41,1.4-4.43,1.41-.1.05-.21.07-.32.07Z"/>
    <path class="st2" d="M66.68,70.36c-1.83,3.96-5.43,6.19-8.05,4.98-2.62-1.21-3.25-5.4-1.42-9.36,1.83-3.96,5.43-6.19,8.05-4.98,2.61,1.21,3.25,5.4,1.42,9.36Z"/>
    <path class="st1" d="M60.17,76.39c-.64,0-1.26-.13-1.84-.4-1.49-.69-2.48-2.18-2.79-4.19-.29-1.9.07-4.08,1.01-6.12,1.99-4.31,6.03-6.7,9-5.33,2.97,1.37,3.77,6,1.77,10.31-.94,2.04-2.36,3.72-4,4.74-1.06.66-2.14.99-3.16.99h0ZM63.75,61.39c-2.06,0-4.53,1.96-5.88,4.89-.83,1.79-1.15,3.67-.9,5.3.23,1.52.93,2.62,1.97,3.1,1.04.48,2.33.3,3.64-.51,1.4-.87,2.63-2.33,3.46-4.12,1.63-3.53,1.14-7.38-1.07-8.4-.38-.17-.79-.26-1.21-.26h0Z"/>
    <path class="st1" d="M63,68.16c0,1.71-1.39,3.1-3.1,3.1s-3.1-1.39-3.1-3.1,1.39-3.1,3.1-3.1,3.1,1.39,3.1,3.1Z"/>
    <path class="st2" d="M38.22,70.36c1.83,3.96,5.43,6.19,8.05,4.98,2.62-1.21,3.25-5.4,1.42-9.36-1.83-3.96-5.43-6.19-8.05-4.98-2.61,1.21-3.25,5.4-1.42,9.36Z"/>
    <path class="st1" d="M44.74,76.39c-1.02,0-2.1-.33-3.16-.99-1.64-1.01-3.06-2.7-4-4.74-1.99-4.31-1.2-8.94,1.77-10.31,2.97-1.37,7.01,1.02,9,5.33.94,2.04,1.3,4.21,1.01,6.12-.31,2.01-1.3,3.5-2.79,4.19-.58.27-1.19.4-1.84.4ZM41.16,61.39c-.43,0-.83.08-1.21.26-2.21,1.02-2.7,4.87-1.07,8.4.83,1.79,2.05,3.25,3.45,4.12,1.31.81,2.6.99,3.64.51,1.04-.48,1.74-1.58,1.97-3.1.25-1.63-.07-3.51-.9-5.3-1.35-2.93-3.82-4.89-5.88-4.89h0Z"/>
    <path class="st2" d="M38.22,70.36c1.83,3.96,5.43,6.19,8.05,4.98,2.62-1.21,3.25-5.4,1.42-9.36-1.83-3.96-5.43-6.19-8.05-4.98-2.61,1.21-3.25,5.4-1.42,9.36Z"/>
    <path class="st1" d="M44.74,76.39c-1.02,0-2.1-.33-3.16-.99-1.64-1.01-3.06-2.7-4-4.74-1.99-4.31-1.2-8.94,1.77-10.31,2.97-1.37,7.01,1.02,9,5.33.94,2.04,1.3,4.21,1.01,6.12-.31,2.01-1.3,3.5-2.79,4.19-.58.27-1.19.4-1.84.4ZM41.16,61.39c-.43,0-.83.08-1.21.26-2.21,1.02-2.7,4.87-1.07,8.4.83,1.79,2.05,3.25,3.45,4.12,1.31.81,2.6.99,3.64.51,1.04-.48,1.74-1.58,1.97-3.1.25-1.63-.07-3.51-.9-5.3-1.35-2.93-3.82-4.89-5.88-4.89h0Z"/>
    <path class="st1" d="M41.9,68.16c0,1.71,1.39,3.1,3.1,3.1s3.1-1.39,3.1-3.1-1.39-3.1-3.1-3.1-3.1,1.39-3.1,3.1Z"/>
    <path class="st1" d="M48.12,68.16c0,1.71-1.39,3.1-3.1,3.1s-3.1-1.39-3.1-3.1,1.39-3.1,3.1-3.1,3.1,1.39,3.1,3.1Z"/>
    <path class="st2" d="M48.1,66.53c0,1-.81,1.81-1.81,1.81s-1.81-.81-1.81-1.81.81-1.81,1.81-1.81,1.81.81,1.81,1.81Z"/>
    <path class="st5" d="M48.7,75.06c-.93,1.16-.83,2.83.24,3.86.76.72,2.41,1.15,3.26,1.22,0,0-6.18-.41-8.26-3.45.89-.93,3.23-2.19,3.94-3.08.71-.89,2.18-2.62,3.16-1.75"/>
    <path class="st5" d="M50.06,71.62s1.18-6.72-3.95-8.65c1.1,2.49,3.39,7.9,2.3,9.93-1.1,2.03,1.65-1.28,1.65-1.28"/>
    <path class="st1" d="M52.45,81.31c-3.45,0-6.91-1.84-10.03-5.33-.06-.06-.1-.13-.13-.21-1.85-.89-3.61-2.7-4.72-5.11-1.99-4.31-1.2-8.94,1.77-10.31,1.49-.69,3.27-.48,5,.59,1.64,1.01,3.06,2.7,4,4.74.93,2,1.25,4.07,1.03,5.86,1.76-1.65,4.54-1.61,6.26.11l2.56,2.54c.28.28.28.73,0,1.02-.28.28-.73.28-1.02,0l-2.56-2.55c-1.2-1.2-3.15-1.2-4.34,0l-2.5,2.49s-.05.04-.07.06c-.33.32-.71.58-1.13.77-.55.26-1.15.38-1.75.39,1.94,1.81,4.57,3.5,7.63,3.5.4,0,.72.32.72.72s-.32.72-.72.72h0ZM38.88,70.06c1.66,3.59,4.84,5.67,7.09,4.63,2.21-1.02,2.7-4.87,1.07-8.4-.83-1.79-2.05-3.25-3.45-4.12-1.31-.81-2.6-.99-3.64-.51-2.21,1.02-2.7,4.87-1.07,8.4Z"/>
    <path class="st1" d="M66.45,83.34c-1.08,0-2.21-.29-3.43-.87-.36-.17-.51-.6-.34-.96.17-.36.6-.51.96-.34,2.28,1.09,3.82.81,4.99.17-.62-.53-1.13-.96-1.13-.96-.27-.23-.34-.62-.15-.92.18-.3.55-.43.88-.3,1.35.53,2.55.52,3.67-.04,1.42-.71,2.45-2.17,3.13-3.48-1.09.42-2.61.6-4.71.11-4.45-1.04-7.3,2.61-7.42,2.77-.24.32-.69.38-1.01.14-.32-.24-.38-.69-.14-1.01.14-.19,3.52-4.56,8.9-3.3,4.29,1,5.42-1.29,5.47-1.38.16-.34.55-.5.9-.37.35.13.54.5.45.86-.06.21-1.46,5.21-4.92,6.95-.69.35-1.41.54-2.16.58.11.14.17.31.16.49-.01.22-.12.42-.3.55-1.23.88-2.48,1.32-3.8,1.32h0Z"/>
    <path class="st0" d="M49.87,90.48h-5.89v2.44h5.89v-2.44Z"/>
    <path class="st0" d="M58.99,91.57h-5.89v2.44h5.89v-2.44Z"/>
    <path class="st1" d="M55.95,94.32c-.4,0-.72-.32-.72-.72v-.99c0-.4.32-.72.72-.72s.72.32.72.72v.99c0,.4-.32.72-.72.72Z"/>
    <path class="st3" d="M44.09,90.21s.81,0,1.44-.04c.2,0,.34.26.26.5-.29.95-.04,1.71-.26,2.01-.26.35-1.73-.19-1.73-.19l.29-2.28Z"/>
    <path class="st3" d="M53.02,91.4s.81-.11,1.42-.22c.2-.03.37.21.33.46-.17.98.18,1.7,0,2.02-.22.38-1.74.03-1.74.03v-2.3s0,0,0,0Z"/>
    <path class="st0" d="M49.77,50.35s3.01,2.53,5.07,1.98c1.25-.34-.07,2.34-4.9,1.67-5.03-.7-2.42-5.83-2.42-5.83l2.25,2.18Z"/>
    <path class="st0" d="M50.43,45.1c.35.82,2.97,2.05,4.8,1.95.25-.01.48.14.55.37.44,1.42.45,3.04.08,3.7-.35.63-8.38-.85-8.41-4.23-.03-3.38,1.32-3.45,1.32-3.45l1.66,1.66Z"/>
    <path class="st0" d="M50.48,39.45c.27.78,2.32,2.02,3.71,2.14.33.03.62.26.72.57.36,1.06.47,2.2.64,3.22.11.64-7.48-.77-7.51-4.15-.03-3.38,1.08-3.45,1.08-3.45l1.36,1.66h0Z"/>
    <path class="st1" d="M54.99,51.8c-2.29,0-4.35-.96-5.11-1.36-1.4-.74-2.95-1.92-3.09-3.02-.05-.39.22-.76.62-.81.39-.05.76.22.81.62.05.28.87,1.2,2.53,2.04.91.46,4.08,1.86,6.69.55.36-.18.79-.03.96.32.18.35.03.79-.32.96-1.01.51-2.07.7-3.09.7ZM54.57,46.4c-1.39,0-2.89-.39-4.35-1.16-1.21-.64-2.55-1.67-2.68-2.65-.05-.39.22-.76.62-.81.4-.05.75.22.81.61.07.24.85,1.1,2.43,1.82.92.42,3.28,1.29,5.25.31.36-.18.79-.03.96.32.18.35.03.79-.32.96-.8.4-1.72.6-2.7.6h0Z"/>
    <path class="st0" d="M54.19,38.43c.07.31-.11.62-.42.7-.34.09-.84.3-1.74.32-2.04.05-2.87-2.43-2.87-2.43,0,0,.8-4.76,2.59-4.71.61.02,1.97,4.2,2.43,6.12"/>
    <path class="st1" d="M52.45,56.02c-3.3,0-6.09-2.92-6.09-4.76,0-.12.68-7.67,2.13-13.51,0-.07.02-.13.05-.19.91-3.62,2.13-6.54,3.66-6.54,4.07,0,6.35,20.04,6.35,20.24,0,1.83-2.79,4.76-6.09,4.76ZM49.6,39.41c-1.01,4.68-1.8,10.29-1.8,11.85,0,.96,2.01,3.32,4.65,3.32s4.65-2.36,4.65-3.32c0-.64-.66-5.5-1.68-10.14-.02-.1-.04-.2-.07-.3-1.4.37-3.1.11-4.72-.75-.21-.11-.63-.35-1.04-.66ZM49.97,37.79c.21.28.92.9,2.06,1.34.67.26,1.87.61,3,.29-1.65-6.76-2.82-6.97-2.83-6.97-.7,0-1.51,2.31-2.23,5.33Z"/>
    <path class="st2" d="M62.99,66.53c0,1-.81,1.81-1.81,1.81s-1.81-.81-1.81-1.81.81-1.81,1.81-1.81,1.81.81,1.81,1.81Z"/>
    <path class="st5" d="M52.48,83.08l.06-.15c.63-.12,1.56.3,1.81.89l.81,2.36c.11.32.12.66.04.99l-.93,3.75-.35-4.27-1.44-3.55Z"/>
    <path class="st1" d="M46.79,93.52c-.4,0-.72-.32-.72-.72v-.88c0-.4.32-.72.72-.72s.72.32.72.72v.88c0,.4-.32.72-.72.72ZM49.38,90.67h-5.4c-.4,0-.72-.32-.72-.72s.32-.72.72-.72h5.4c.4,0,.72.32.72.72s-.32.72-.72.72Z"/>
    <path class="st1" d="M58.65,91.63h-5.12c-.4,0-.72-.32-.72-.72s.32-.72.72-.72h5.12c.4,0,.72.32.72.72s-.32.72-.72.72Z"/>
    <path class="st5" d="M52.93,84c.66.66,1.81,2.49,1.34,2.96-.47.47-1.97.05-2.64-.61-.66-.66-.87-1.55-.4-2.02.97.4,1.04-.98,1.7-.32Z"/>
    <path class="st1" d="M49.32,93.63h-5.49c-.2,0-.39-.08-.52-.23s-.21-.34-.19-.54l.55-8.35c0-.07.02-.14.04-.21l2.18-5.82c.14-.37.56-.56.93-.42.37.14.56.55.42.93l-2.14,5.72-.5,7.48h4.02l.1-4.64c0-.1.02-.19.06-.28l1.25-2.81c.16-.36.59-.53.95-.36.36.16.53.59.36.95l-1.19,2.68-.12,5.2c0,.39-.33.7-.72.7h0Z"/>
    <path class="st0" d="M53.48,89.47h-3.71v2.23h3.71v-2.23Z"/>
    <path class="st1" d="M53.48,92.41h-3.71c-.4,0-.72-.32-.72-.72v-2.23c0-.4.32-.72.72-.72h3.71c.4,0,.72.32.72.72v2.23c0,.4-.32.72-.72.72ZM50.48,90.98h2.28v-.79h-2.28v.79Z"/>
    <path class="st1" d="M58.77,94.32h-5.49c-.2,0-.4-.08-.53-.23-.14-.15-.2-.35-.18-.55l.63-6.78-1.25-2.86c-.16-.36,0-.79.37-.95.36-.16.79,0,.95.37l1.32,3.03c.05.11.07.23.06.35l-.57,6.18h4.09l1.19-7.74c.06-.39.43-.65.82-.6.39.06.66.43.6.82l-.86,5.62s.07,0,.1,0h.92c.09-.29.36-.51.69-.51s.6.21.69.51h.88c-.13-10.53-3.18-13.37-3.21-13.4-.29-.26-.33-.71-.07-1.01.26-.3.7-.33,1-.08.15.13,3.71,3.28,3.71,15.21,0,.4-.32.72-.72.72h-3.9c-.11,0-.22-.03-.31-.07l-.21,1.37c-.05.35-.36.61-.71.61h0ZM51.43,92.06c-.4,0-.72-.32-.72-.72v-.16c0-.4.32-.72.72-.72s.72.32.72.72v.16c0,.4-.32.72-.72.72Z"/>
    <path class="st2" d="M46.71,79.08l-2.33,5.48-.39,5.39h5.4l1.05-.59,3.04.11.05,1.44h5.66l.41-1.44h4.27s-1.2-10.52-3.23-11.93c-7.76,5.27-13.92,1.54-13.92,1.54"/>
    <path class="st5" d="M60.73,85.23l.31,4.01h-1.5l1.18-4.01Z"/>
    <path class="st5" d="M45.9,80.59s4.69,2.8,10.32,0c4.49-2.24-9.52-1.51-9.52-1.51l-.8,1.51h0Z"/>
    <path class="st0" d="M63.9,91.69h-4.59l.28-2.23h4.27s.05,1.5.04,2.23Z"/>
    <path class="st1" d="M63.9,92.41h-4.59c-.21,0-.4-.09-.54-.24-.14-.15-.2-.36-.17-.56l.28-2.22c.04-.36.35-.63.71-.63h4.27c.39,0,.71.31.72.7,0,0,.05,1.52.04,2.25,0,.39-.32.71-.72.71h0ZM60.12,90.98h3.05c0-.27,0-.54-.02-.79h-2.94l-.1.79h0Z"/>
    <path class="st5" d="M62.33,78.09s3.18-4.2,8.16-3.03c4.98,1.17,6.28-1.79,6.28-1.79,0,0-2.47,9.06-8.81,6.56,0,0,.97.82,1.87,1.6-1.9,1.37-3.63,2.18-7.04.12"/>
    <path class="st2" d="M61.9,78.8s3.21-4.72,7.3-3.76c4.09.96,6.54-.06,6.54-.06,0,0-2.84,5.82-7.37,3.13-.79-.56-1.85-.44-2.36.28-.52.72-.29,1.76.49,2.33-1.19.48-2.78-.13-3.64-.7"/>
    <path class="st5" d="M48.02,79.69s.5-1.28-1.32-.61c-1.81.67-2.98,10.9-2.98,10.9h.81c.45,0,1.34-.08,1.31-.53,0,0,.06-3.02.27-4.71.42-1.55,1.91-5.06,1.91-5.06"/>
    <path class="st2" d="M69.84,55.51c0,9.77-7.79,25.08-17.39,25.08s-17.39-15.31-17.39-25.08,7.79-13.69,17.39-13.69,17.39,3.92,17.39,13.69Z"/>
    <path class="st1" d="M52.45,81.31c-10,0-18.11-15.61-18.11-25.8,0-9.15,6.6-14.4,18.11-14.4s18.11,5.25,18.11,14.4c0,10.19-8.11,25.8-18.11,25.8ZM52.45,42.55c-5.01,0-16.67,1.26-16.67,12.97,0,9.4,7.63,24.36,16.67,24.36s16.67-14.96,16.67-24.36c0-11.7-11.66-12.97-16.67-12.97Z"/>
    <path class="st5" d="M37.55,53.88s-1.71.27-2.55-.08c-1.13-.47.7-1.88.7-1.88l1.84,1.96h0Z"/>
    <path class="st5" d="M56.63,52.06c0,2.18-1.43,2.91-4.13,3.93-3.06,0-9.23-1.75-9.23-3.93s6.74-3.94,9.8-3.94,3.57,1.77,3.57,3.94Z"/>
    <path class="st5" d="M55.08,71.67s-.95-3.96,2.03-5.29c-.56,1.52-1.73,4.83-1,5.99.73,1.17-1.03-.7-1.03-.7"/>
    <path class="st1" d="M52.45,81.31c-10,0-18.11-15.61-18.11-25.8,0-9.15,6.6-14.4,18.11-14.4s18.11,5.25,18.11,14.4c0,10.19-8.11,25.8-18.11,25.8ZM52.45,42.55c-5.01,0-16.67,1.26-16.67,12.97,0,9.4,7.63,24.36,16.67,24.36s16.67-14.96,16.67-24.36c0-11.7-11.66-12.97-16.67-12.97Z"/>
    <path class="st5" d="M46.89,58.93s.97,4.15,7.47,4.76c.44.04.69-.49.46-.86-.31-.48-1.28-1.27-1.3-1.91,1.44.17,3.78.87,5.01.2.38-.2.35-.75-.04-.93-.8-.36-.76-1.7-1.13-2.39"/>
    <path class="st2" d="M47.08,57.62s.56,4.56,8.65,3.97c-.48-.62-.99-1.29-1.01-2.2,1.61.19,3.63.23,4.65-.97-.95-.17-2.02-.9-2.47-1.73"/>
    <path class="st1" d="M54.33,62.36c-7.3,0-7.93-4.46-7.96-4.66-.05-.39.23-.75.63-.8.39-.05.75.23.8.62.02.16.58,3.4,6.53,3.4h.08c-.23-.43-.4-.93-.41-1.51,0-.21.08-.41.23-.55.15-.14.36-.21.57-.18,1.3.15,2.29.12,3.01-.1-.65-.39-1.22-.95-1.54-1.54-.19-.35-.06-.79.29-.97.35-.19.79-.06.97.29.33.62,1.21,1.23,1.96,1.36.25.04.46.22.55.46.09.24.04.51-.13.71-1.03,1.2-2.76,1.38-4.27,1.3.16.33.4.64.65.96.16.21.19.49.09.73-.11.24-.34.4-.6.42-.51.04-1,.05-1.46.05h0Z"/>
    <path class="st2" d="M57.83,51.26c0,1.42-2.41,4.04-5.37,4.04s-5.37-2.62-5.37-4.04,2.15-19.53,5.12-19.53,5.63,18.11,5.63,19.53Z"/>
    <path class="st1" d="M52.45,56.02c-3.3,0-6.09-2.92-6.09-4.76,0-.2,1.82-20.24,5.84-20.24s6.35,20.04,6.35,20.24c0,1.83-2.79,4.76-6.09,4.76ZM52.2,32.46c-1.84,0-4.4,15.98-4.4,18.81,0,.96,2.01,3.32,4.65,3.32s4.65-2.36,4.65-3.32c0-.64-.66-5.5-1.68-10.14-1.86-8.43-3.21-8.67-3.22-8.67Z"/>
    <path class="st1" d="M55.68,76.73c.08.38-.55-.02-1.2.11-.65.13-1.07.74-1.15.36s.31-1.17.96-1.3c.65-.13,1.31.46,1.39.84"/>
    <path class="st1" d="M49.28,76.73c-.08.38.55-.02,1.2.11.65.13,1.07.74,1.15.36s-.31-1.17-.96-1.3c-.65-.13-1.31.46-1.39.84"/>
    <path class="st2" d="M42.45,45.39s-4.25-2.1-8.18-1.85c-1.39,4.04.2,8.07,3.23,9.65"/>
    <path class="st1" d="M37.5,53.9c-.11,0-.23-.03-.33-.08-3.49-1.81-5.03-6.33-3.58-10.52.1-.27.34-.46.63-.48,4.08-.27,8.36,1.83,8.54,1.92.36.18.5.61.32.96-.18.36-.61.5-.96.33-.04-.02-3.78-1.84-7.32-1.8-.96,3.38.3,6.89,3.03,8.31.35.18.49.62.31.97-.13.25-.38.39-.64.39h0Z"/>
    <path class="st5" d="M35.65,46.23c-.1.6.03,3.12,2.26,4.88.09.07.21-.02.17-.12-.18-.56-.25-.91-.28-1.21,0-.11.11-.18.2-.12.21.14.46.24.95.13.16-.03.23-.21.16-.35-.08-.15-.19-.32-.23-.54-.02-.14.09-.26.23-.26.85.03,1.52.14,2.05-.25"/>
    <path class="st2" d="M40.88,47.87s-2.11-1.04-4.63-1.47l4.63,1.47Z"/>
    <path class="st1" d="M40.88,48.59c-.11,0-.21-.02-.32-.07-.02-.01-2.05-1-4.43-1.41-.39-.07-.65-.44-.59-.83.07-.39.44-.65.83-.59,2.59.44,4.74,1.49,4.83,1.54.36.18.5.61.33.96-.12.25-.38.4-.65.4Z"/>
    <path class="st2" d="M62.46,45.39s4.25-2.1,8.18-1.85c1.39,4.04-.2,8.07-3.23,9.65"/>
    <path class="st1" d="M67.4,53.9c-.26,0-.51-.14-.64-.39-.18-.35-.05-.79.31-.97,2.73-1.42,3.99-4.93,3.03-8.31-3.56-.06-7.28,1.78-7.32,1.8-.36.18-.79.03-.96-.33-.18-.36-.03-.79.33-.96.18-.09,4.47-2.19,8.54-1.92.29.02.54.21.63.48,1.45,4.19-.09,8.71-3.58,10.52-.11.05-.22.08-.33.08h0Z"/>
    <path class="st5" d="M69.25,46.23c.1.6-.03,3.12-2.26,4.88-.09.07-.21-.02-.17-.12.18-.56.25-.91.28-1.21,0-.11-.11-.18-.2-.12-.21.14-.46.24-.95.13-.16-.03-.24-.21-.16-.35.08-.15.19-.32.23-.54.02-.14-.09-.26-.23-.26-.85.03-1.52.14-2.05-.25"/>
    <path class="st2" d="M64.03,47.87s2.11-1.04,4.63-1.47l-4.63,1.47Z"/>
    <path class="st1" d="M64.03,48.59c-.26,0-.52-.15-.65-.4-.18-.36-.03-.79.33-.96.09-.04,2.23-1.1,4.83-1.54.38-.06.76.2.83.59.07.39-.2.76-.59.83-2.38.4-4.41,1.4-4.43,1.41-.1.05-.21.07-.32.07Z"/>
    <path class="st2" d="M66.68,70.36c-1.83,3.96-5.43,6.19-8.05,4.98-2.62-1.21-3.25-5.4-1.42-9.36,1.83-3.96,5.43-6.19,8.05-4.98,2.61,1.21,3.25,5.4,1.42,9.36Z"/>
    <path class="st1" d="M60.17,76.39c-.64,0-1.26-.13-1.84-.4-1.49-.69-2.48-2.18-2.79-4.19-.29-1.9.07-4.08,1.01-6.12,1.99-4.31,6.03-6.7,9-5.33,2.97,1.37,3.77,6,1.77,10.31-.94,2.04-2.36,3.72-4,4.74-1.06.66-2.14.99-3.16.99h0ZM63.75,61.39c-2.06,0-4.53,1.96-5.88,4.89-.83,1.79-1.15,3.67-.9,5.3.23,1.52.93,2.62,1.97,3.1,1.04.48,2.33.3,3.64-.51,1.4-.87,2.63-2.33,3.46-4.12,1.63-3.53,1.14-7.38-1.07-8.4-.38-.17-.79-.26-1.21-.26h0Z"/>
    <path class="st2" d="M38.22,70.36c1.83,3.96,5.43,6.19,8.05,4.98,2.62-1.21,3.25-5.4,1.42-9.36-1.83-3.96-5.43-6.19-8.05-4.98-2.61,1.21-3.25,5.4-1.42,9.36Z"/>
    <path class="st1" d="M44.74,76.39c-1.02,0-2.1-.33-3.16-.99-1.64-1.01-3.06-2.7-4-4.74-1.99-4.31-1.2-8.94,1.77-10.31,2.97-1.37,7.01,1.02,9,5.33.94,2.04,1.3,4.21,1.01,6.12-.31,2.01-1.3,3.5-2.79,4.19-.58.27-1.19.4-1.84.4ZM41.16,61.39c-.43,0-.83.08-1.21.26-2.21,1.02-2.7,4.87-1.07,8.4.83,1.79,2.05,3.25,3.45,4.12,1.31.81,2.6.99,3.64.51,1.04-.48,1.74-1.58,1.97-3.1.25-1.63-.07-3.51-.9-5.3-1.35-2.93-3.82-4.89-5.88-4.89h0Z"/>
    <path class="st2" d="M38.22,70.36c1.83,3.96,5.43,6.19,8.05,4.98,2.62-1.21,3.25-5.4,1.42-9.36-1.83-3.96-5.43-6.19-8.05-4.98-2.61,1.21-3.25,5.4-1.42,9.36Z"/>
    <path class="st1" d="M44.74,76.39c-1.02,0-2.1-.33-3.16-.99-1.64-1.01-3.06-2.7-4-4.74-1.99-4.31-1.2-8.94,1.77-10.31,2.97-1.37,7.01,1.02,9,5.33.94,2.04,1.3,4.21,1.01,6.12-.31,2.01-1.3,3.5-2.79,4.19-.58.27-1.19.4-1.84.4ZM41.16,61.39c-.43,0-.83.08-1.21.26-2.21,1.02-2.7,4.87-1.07,8.4.83,1.79,2.05,3.25,3.45,4.12,1.31.81,2.6.99,3.64.51,1.04-.48,1.74-1.58,1.97-3.1.25-1.63-.07-3.51-.9-5.3-1.35-2.93-3.82-4.89-5.88-4.89h0Z"/>
    <path class="st1" d="M47.95,67.24c-.28.64-.91,1.09-1.66,1.09-1,0-1.81-.81-1.81-1.81,0-.59.29-1.12.73-1.45-.07,0-.14-.02-.22-.02-1.71,0-3.1,1.39-3.1,3.1s1.39,3.1,3.1,3.1,3.1-1.39,3.1-3.1c0-.32-.06-.63-.15-.92h0Z"/>
    <path class="st5" d="M48.7,75.06c-.93,1.16-.83,2.83.24,3.86.76.72,2.41,1.15,3.26,1.22,0,0-6.18-.41-8.26-3.45.89-.93,3.23-2.19,3.94-3.08.71-.89,2.18-2.62,3.16-1.75"/>
    <path class="st5" d="M50.06,71.62s1.18-6.72-3.95-8.65c1.1,2.49,3.39,7.9,2.3,9.93-1.1,2.03,1.65-1.28,1.65-1.28"/>
    <path class="st1" d="M52.45,81.31c-3.45,0-6.91-1.84-10.03-5.33-.06-.06-.1-.13-.13-.21-1.85-.89-3.61-2.7-4.72-5.11-1.99-4.31-1.2-8.94,1.77-10.31,1.49-.69,3.27-.48,5,.59,1.64,1.01,3.06,2.7,4,4.74.93,2,1.25,4.07,1.03,5.86,1.76-1.65,4.54-1.61,6.26.11l2.56,2.54c.28.28.28.73,0,1.02-.28.28-.73.28-1.02,0l-2.56-2.55c-1.2-1.2-3.15-1.2-4.34,0l-2.5,2.49s-.05.04-.07.06c-.33.32-.71.58-1.13.77-.55.26-1.15.38-1.75.39,1.94,1.81,4.57,3.5,7.63,3.5.4,0,.72.32.72.72s-.32.72-.72.72h0ZM38.88,70.06c1.66,3.59,4.84,5.67,7.09,4.63,2.21-1.02,2.7-4.87,1.07-8.4-.83-1.79-2.05-3.25-3.45-4.12-1.31-.81-2.6-.99-3.64-.51-2.21,1.02-2.7,4.87-1.07,8.4Z"/>
    <path class="st1" d="M66.31,83.3c-1.2,0-2.45-.3-3.71-.9-.36-.17-.51-.6-.34-.96.17-.36.6-.51.96-.34,1.93.92,3.81,1,5.4.24-.61-.53-1.11-.95-1.11-.95-.27-.23-.34-.62-.15-.92.18-.3.55-.43.88-.3,1.35.53,2.55.52,3.67-.04,1.42-.71,2.45-2.17,3.13-3.48-1.09.42-2.61.6-4.71.11-4.47-1.05-7.83,3.11-7.86,3.16-.25.31-.7.36-1.01.12-.31-.25-.36-.7-.12-1.01.16-.2,3.95-4.93,9.32-3.67,4.29,1,5.42-1.29,5.47-1.38.16-.34.55-.5.9-.37.35.13.54.5.45.86-.06.21-1.46,5.21-4.92,6.95-.69.35-1.41.54-2.16.58.11.14.17.31.16.49-.01.22-.12.42-.3.55-1.18.85-2.52,1.27-3.95,1.27h0Z"/>
    <path class="st0" d="M49.87,90.48h-5.89v2.44h5.89v-2.44Z"/>
    <path class="st0" d="M58.99,91.57h-5.89v2.44h5.89v-2.44Z"/>
    <path class="st1" d="M55.95,94.32c-.4,0-.72-.32-.72-.72v-.99c0-.4.32-.72.72-.72s.72.32.72.72v.99c0,.4-.32.72-.72.72Z"/>
    <path class="st3" d="M44.09,90.21s.81,0,1.44-.04c.2,0,.34.26.26.5-.29.95-.04,1.71-.26,2.01-.26.35-1.73-.19-1.73-.19l.29-2.28Z"/>
    <path class="st3" d="M53.02,91.4s.81-.11,1.42-.22c.2-.03.37.21.33.46-.17.98.18,1.7,0,2.02-.22.38-1.74.03-1.74.03v-2.3s0,0,0,0Z"/>
    <path class="st0" d="M49.77,50.35s3.01,2.53,5.07,1.98c1.25-.34-.07,2.34-4.9,1.67-5.03-.7-2.42-5.83-2.42-5.83l2.25,2.18Z"/>
    <path class="st0" d="M50.43,45.1c.35.82,2.97,2.05,4.8,1.95.25-.01.48.14.55.37.44,1.42.45,3.04.08,3.7-.35.63-8.38-.85-8.41-4.23-.03-3.38,1.32-3.45,1.32-3.45l1.66,1.66Z"/>
    <path class="st0" d="M50.48,39.45c.27.78,2.32,2.02,3.71,2.14.33.03.62.26.72.57.36,1.06.47,2.2.64,3.22.11.64-7.48-.77-7.51-4.15-.03-3.38,1.08-3.45,1.08-3.45l1.36,1.66h0Z"/>
    <path class="st1" d="M54.99,51.8c-2.29,0-4.35-.96-5.11-1.36-1.4-.74-2.95-1.92-3.09-3.02-.05-.39.22-.76.62-.81.39-.05.76.22.81.62.05.28.87,1.2,2.53,2.04.91.46,4.08,1.86,6.69.55.36-.18.79-.03.96.32.18.35.03.79-.32.96-1.01.51-2.07.7-3.09.7ZM54.57,46.4c-1.39,0-2.89-.39-4.35-1.16-1.21-.64-2.55-1.67-2.68-2.65-.05-.39.22-.76.62-.81.4-.05.75.22.81.61.07.24.85,1.1,2.43,1.82.92.42,3.28,1.29,5.25.31.36-.18.79-.03.96.32.18.35.03.79-.32.96-.8.4-1.72.6-2.7.6h0Z"/>
    <path class="st0" d="M54.19,38.43c.07.31-.11.62-.42.7-.34.09-.84.3-1.74.32-2.04.05-2.87-2.43-2.87-2.43,0,0,.8-4.76,2.59-4.71.61.02,1.97,4.2,2.43,6.12"/>
    <path class="st1" d="M52.45,56.02c-3.3,0-6.09-2.92-6.09-4.76,0-.12.68-7.67,2.13-13.51,0-.07.02-.13.05-.19.91-3.62,2.13-6.54,3.66-6.54,4.07,0,6.35,20.04,6.35,20.24,0,1.83-2.79,4.76-6.09,4.76ZM49.6,39.41c-1.01,4.68-1.8,10.29-1.8,11.85,0,.96,2.01,3.32,4.65,3.32s4.65-2.36,4.65-3.32c0-.64-.66-5.5-1.68-10.14-.02-.1-.04-.2-.07-.3-1.4.37-3.1.11-4.72-.75-.21-.11-.63-.35-1.04-.66ZM49.97,37.79c.21.28.92.9,2.06,1.34.67.26,1.87.61,3,.29-1.65-6.76-2.82-6.97-2.83-6.97-.7,0-1.51,2.31-2.23,5.33Z"/>
    <path class="st1" d="M62.84,67.22c-.27.65-.92,1.11-1.67,1.11-1,0-1.81-.81-1.81-1.81,0-.59.29-1.12.73-1.45-.07,0-.13-.02-.2-.02-1.71,0-3.1,1.39-3.1,3.1s1.39,3.1,3.1,3.1,3.1-1.39,3.1-3.1c0-.33-.07-.64-.16-.93Z"/>
    <path class="st5" d="M52.48,83.08l.06-.15c.63-.12,1.56.3,1.81.89l.81,2.36c.11.32.12.66.04.99l-.93,3.75-.35-4.27-1.44-3.55Z"/>
    <path class="st1" d="M46.79,93.52c-.4,0-.72-.32-.72-.72v-.88c0-.4.32-.72.72-.72s.72.32.72.72v.88c0,.4-.32.72-.72.72ZM49.38,90.67h-5.4c-.4,0-.72-.32-.72-.72s.32-.72.72-.72h5.4c.4,0,.72.32.72.72s-.32.72-.72.72Z"/>
    <path class="st1" d="M58.65,91.63h-5.12c-.4,0-.72-.32-.72-.72s.32-.72.72-.72h5.12c.4,0,.72.32.72.72s-.32.72-.72.72Z"/>
    <path class="st5" d="M52.93,84c.66.66,1.81,2.49,1.34,2.96-.47.47-1.97.05-2.64-.61-.66-.66-.87-1.55-.4-2.02.97.4,1.04-.98,1.7-.32Z"/>
    <path class="st1" d="M49.32,93.63h-5.49c-.2,0-.39-.08-.52-.23s-.21-.34-.19-.54l.55-8.35c0-.07.02-.14.04-.21l2.18-5.82c.14-.37.56-.56.93-.42.37.14.56.55.42.93l-2.14,5.72-.5,7.48h4.02l.1-4.64c0-.1.02-.19.06-.28l1.25-2.81c.16-.36.59-.53.95-.36.36.16.53.59.36.95l-1.19,2.68-.12,5.2c0,.39-.33.7-.72.7h0Z"/>
    <path class="st0" d="M53.48,89.47h-3.71v2.23h3.71v-2.23Z"/>
    <path class="st1" d="M53.48,92.41h-3.71c-.4,0-.72-.32-.72-.72v-2.23c0-.4.32-.72.72-.72h3.71c.4,0,.72.32.72.72v2.23c0,.4-.32.72-.72.72ZM50.48,90.98h2.28v-.79h-2.28v.79Z"/>
    <path class="st1" d="M58.77,94.32h-5.49c-.2,0-.4-.08-.53-.23-.14-.15-.2-.35-.18-.55l.63-6.78-1.25-2.86c-.16-.36,0-.79.37-.95.36-.16.79,0,.95.37l1.32,3.03c.05.11.07.23.06.35l-.57,6.18h4.09l1.19-7.74c.06-.39.43-.65.82-.6.39.06.66.43.6.82l-.86,5.62s.07,0,.1,0h.92c.09-.29.36-.51.69-.51s.6.21.69.51h.88c-.13-10.53-3.18-13.37-3.21-13.4-.29-.26-.33-.71-.07-1.01.26-.3.7-.33,1-.08.15.13,3.71,3.28,3.71,15.21,0,.4-.32.72-.72.72h-3.9c-.11,0-.22-.03-.31-.07l-.21,1.37c-.05.35-.36.61-.71.61h0ZM51.43,92.06c-.4,0-.72-.32-.72-.72v-.16c0-.4.32-.72.72-.72s.72.32.72.72v.16c0,.4-.32.72-.72.72Z"/>
  </g>
  <g>
    <path class="st4" d="M89.4,61.05c0,.87.13,1.49.29,1.94h.42c1.16,0,6.66-3.49,6.66-11.09,0-7.18-5.21-10.93-8.63-10.93-4.01,0-7.53,3.43-7.53,9.54,0,3.91,1.78,5.66,2.65,5.66s.78-.39,1.03-.39c.68,0,.06,1.1-.87,1.1-2.81,0-7.47-1.39-7.47-7.34,0-4.95,3.75-10.25,10.41-10.25,7.79,0,13.94,6.01,13.94,13.48s-4.72,13.81-8.12,13.81c-1.2,0-2.49-.65-3.39-1.49-.78-.03-1.68-.29-2.2-.81-.84-.87-.94-3.1-.94-4.46,0-4.49.68-12,2.68-12,2.26,0,3.14,1.03,3.14,1.39,0,.91-2.07,1.75-2.07,11.83h0Z"/>
    <path class="st4" d="M111.55,56.49c.03-.29.16-.42.32-.42.36,0,.87.61.87,1.29,0,3.04-2.23,7.18-5.46,7.18-4.17,0-5.98-3.75-5.98-7.7,0-5.76,2.07-8.12,4.82-8.12,0-.78.58-.91.9-.91,1.81,0,2.46,1.26,2.46,3.78,0,3.98-2.72,7.02-4.72,7.02h-.29c.45,1.55,1.45,3.07,3.43,3.07,2.3,0,3.39-2.62,3.65-5.21ZM106.67,49.99c-1.26.26-2.46,2.62-2.46,6.63,0,.23.03.48.03.71.78-.1,2.75-2,2.75-5.5,0-.91-.16-1.45-.32-1.84h0Z"/>
    <path class="st4" d="M114.49,49.15c1.26-5.66,3.49-8.08,6.56-8.08,1.29,0,2.46.74,2.46,1.52,0,2-3.69,5.66-4.17,5.66-.07,0-.1-.06-.1-.13,0-.45,2.07-2.85,2.07-5.08,0-.29-.13-.45-.39-.45-.81,0-2.52,1.26-3.52,6.63,2.23-.1,4.88-.65,5.04-.65.26,0,.45.26.45.61,0,.65-2.62,1.45-5.79,1.81-.29,2.33-.49,5.24-.49,8.89,0,5.63,1.1,5.98,1.1,6.69,0,.29-.32.49-.81.49-1.52,0-3.56-1.07-3.56-4.24,0-4.72.26-8.57.74-11.64h-.36c-.87,0-1.68-1.39-1.68-1.81,0-.32.45-.97.78-.97.07,0,.13.03.19.1.23.26-.1.52,1.45.65h0Z"/>
    <path class="st4" d="M131.48,56.49c.03-.29.16-.42.32-.42.36,0,.87.61.87,1.29,0,3.04-2.23,7.18-5.46,7.18-4.17,0-5.98-3.75-5.98-7.7,0-5.76,2.07-8.12,4.82-8.12,0-.78.58-.91.9-.91,1.81,0,2.46,1.26,2.46,3.78,0,3.98-2.72,7.02-4.72,7.02h-.29c.45,1.55,1.46,3.07,3.43,3.07,2.3,0,3.39-2.62,3.65-5.21ZM126.6,49.99c-1.26.26-2.46,2.62-2.46,6.63,0,.23.03.48.03.71.78-.1,2.75-2,2.75-5.5,0-.91-.16-1.45-.32-1.84h0Z"/>
    <path class="st4" d="M138,57.46c0-2.91.87-6.08.87-7.08,0-.19-.03-.32-.13-.32-.58,0-2.78,4.11-3.75,8.57-.03,2.36-.19,4.17-.19,4.17.1.1.16.36.16.61,0,.42-.16.87-.78.87-1.23,0-3.36-1.29-3.36-2.88s.87-2.52.87-9.76c0-1.75-1.26-2.72-1.26-3.1,0-.42.45-.81.81-.81.32,0,.97.03,1.71.78,1.2,1.2,1.71,3.82,1.94,6.5,1.36-3.23,3.14-6.53,4.2-6.53,2.88,0,3.72,1.49,3.72,2.17,0,.97-.68,5.27-.68,8.6,0,2.3.32,4.14,1.42,4.14,1.68,0,2.49-6.5,2.59-7.44.03-.29.16-.42.32-.42.36,0,.87.65.87,1.26v.1c-.26,2.46-.81,8.73-4.43,8.73-2.97,0-4.92-3.3-4.92-8.15h0Z"/>
    <path class="st4" d="M155.83,56.1c.36,0,.9.65.9,1.29v.07c-.16,3.14-2.62,7.86-6.69,7.95h-.06c-2.36,0-3.82-1.78-3.82-3.88,0-.58.36-.94.55-.94.1,0,.16.06.16.23,0,.87.52,2.39,1.58,2.39,1.13,0,1.94-1.13,1.94-2.91,0-2.1-1.42-4.14-2.62-5.85l-.19-.29c-.16,2.46-.39,4.04-.39,4.04,0,0,0,.13-.16.13-.39-.07-1.07-.39-1.07-.81v-.06s.26-1.91.42-5.21c-.16-.32-.23-.58-.23-.84,0-2.72,2.97-3.72,3.75-3.72s1.1.32,1.1,1.03c0,.16-.29.9-.29,1.87,0,4.07,3.4,4.95,3.4,9.8,0,.52-.07.97-.16,1.39,1.2-1.45,1.46-3.56,1.59-5.3.03-.29.13-.39.29-.39h0Z"/>
    <path class="st4" d="M165.66,56.49c.03-.29.16-.42.32-.42.36,0,.87.61.87,1.29,0,3.04-2.23,7.18-5.46,7.18-4.17,0-5.98-3.75-5.98-7.7,0-5.76,2.07-8.12,4.82-8.12,0-.78.58-.91.9-.91,1.81,0,2.46,1.26,2.46,3.78,0,3.98-2.71,7.02-4.72,7.02h-.29c.45,1.55,1.46,3.07,3.43,3.07,2.3,0,3.4-2.62,3.65-5.21ZM160.78,49.99c-1.26.26-2.46,2.62-2.46,6.63,0,.23.03.48.03.71.78-.1,2.75-2,2.75-5.5,0-.91-.16-1.45-.32-1.84h0Z"/>
    <path class="st1" d="M97.32,71.01c0,2.12-.82,4.1-1.61,6-.37,1.58-.65,3.42-.65,5.43,0,8.94,1.9,9.9,2.86,9.9.34,0,.57-.08.88-.2.03,0,.08.08.08.11,0,.25-.4.76-.99.76-2.94,0-5.46-2.57-5.77-8.71-2.21,3.96-4.47,7.21-5.32,7.21-1.24,0-4.53-2.55-4.53-5.43,0-3.54,1.92-14.94,2.63-15.64.28-.28.57-.4.9-.4,1.16,0,2.49,1.44,2.49,2.21,0,.14-.03.23-.11.31-1.05,1.02-3.06,9.7-3.06,13.95,0,1.39.23,2.29.76,2.29,1.44,0,4.1-4.64,6.34-9.25.34-4.89,1.36-10.86,2.4-10.86.9,0,2.46.57,2.69,2.32h0Z"/>
    <path class="st1" d="M104.89,83.52c0-2.55.76-5.32.76-6.19,0-.17-.03-.28-.11-.28-.51,0-2.43,3.59-3.28,7.5-.03,2.07-.17,3.65-.17,3.65.08.08.14.31.14.54,0,.37-.14.76-.68.76-1.07,0-2.94-1.13-2.94-2.52s.76-2.21.76-8.54c0-1.53-1.1-2.38-1.1-2.72,0-.37.4-.71.71-.71.28,0,.85.03,1.5.68,1.05,1.05,1.5,3.34,1.7,5.69,1.19-2.83,2.74-5.71,3.68-5.71,2.52,0,3.25,1.3,3.25,1.9,0,.85-.59,4.61-.59,7.53,0,2.01.28,3.62,1.24,3.62,1.47,0,2.18-5.69,2.26-6.51.03-.25.14-.37.28-.37.31,0,.76.57.76,1.1v.08c-.23,2.15-.71,7.64-3.88,7.64-2.6,0-4.3-2.89-4.3-7.13Z"/>
    <path class="st1" d="M115.26,89.52c-.45,0-1.56-.57-2.35-1.36-.65-.65-.9-3-.9-5.4,0-2.77.34-5.63.76-6.03.2-.17.48-.25.76-.25.54,0,1.19.25,1.58.65.25.25.4.59.4,1.16,0,.4-.2.51-.2.51,0,0-.48,3.96-.48,6.53,0,1.24.11,2.18.45,2.18,1.61,0,2.04-2.91,2.18-3.99,0-.08.11-.14.25-.14.31,0,.82.23.82.57,0,.37-.06,1.33-.37,2.38-.51,1.73-1.7,3.2-2.91,3.2h0ZM113.85,69.6c.34-.34,1.19-.65,1.61-.65.99,0,1.56.76,1.56,1.67,0,.17-.08.31-.17.4-.42.42-.57,2.32-1.81,2.32-.54,0-1.67-.76-1.67-2.12,0-.93.14-1.27.48-1.61h0Z"/>
    <path class="st1" d="M117.44,83.04c0-5.23,2.52-7.33,5.18-7.33,1.61,0,2.74.82,2.74,2.09,0,1.78-1.1,4.02-1.95,4.02-.2,0-.28-.14-.28-.28,0-.06,0-.14.06-.17.28-.31.79-1.47.79-3.2,0-.79-.34-1.44-.76-1.44-.9,0-3.06,1.64-3.06,6.7,0,2.72,1.41,4.61,3.22,4.61,2.63,0,3.25-4.22,3.37-5.18.03-.25.11-.37.25-.37.31,0,.79.57.79,1.13v.06c-.2,2.09-1.16,6.51-4.67,6.51s-5.69-3.14-5.69-7.16h0Z"/>
    <path class="st1" d="M141.8,87.25c0,1.39.54,1.56.88,1.56,1.16,0,2.12-4.55,2.21-5.43.03-.25.14-.37.28-.37.31,0,.76.48.76,1.02v.14c-.23,2.09-1.02,6.28-3.68,6.28-2.86,0-3.48-2.43-3.48-4.67s.93-5.94.93-6.68c0-.51-.45-.88-1.02-1.19-.57,3.76-2.46,5.74-4.07,6-.57,3.42-2.01,6.14-3.82,6.14-1.61,0-4.07-2.07-4.07-5.91s1.41-8.35,4.78-8.35c1.75,0,2.86.93,2.86,1.95,0,.68-.11,1.02-.28,1.22.59.28.79,1.05.79,1.81,0,.65-.03,1.27-.08,1.9,1.16-.23,2.66-2.04,2.89-5.29-.76-.4-1.47-.85-1.47-1.5s.99-1.1,1.75-1.1c.51,0,.9.2.9.71,0,.37,0,.71-.03,1.02,1.5.57,3.99,1.61,3.99,3.39,0,.96-1.02,5.83-1.02,7.36h0ZM133.4,78.88c-.03-.54-.17-1.5-.88-1.5-1.61,0-2.66,3.99-2.66,6.99,0,1.81.37,3.25,1.24,3.25.79,0,1.64-2.07,2.07-3.99-.62-.45-1.08-1.3-1.08-2.6,0-1.05.59-2.04,1.3-2.15h0ZM133.46,80.46s-.03.34-.03.62c0,.14,0,.23.03.34v-.96Z"/>
    <path class="st1" d="M150.65,83.52c0-2.55.76-5.32.76-6.19,0-.17-.03-.28-.11-.28-.51,0-2.43,3.59-3.28,7.5-.03,2.07-.17,3.65-.17,3.65.08.08.14.31.14.54,0,.37-.14.76-.68.76-1.08,0-2.94-1.13-2.94-2.52s.76-2.21.76-8.54c0-1.53-1.1-2.38-1.1-2.72,0-.37.4-.71.71-.71.28,0,.85.03,1.5.68,1.05,1.05,1.5,3.34,1.7,5.69,1.19-2.83,2.74-5.71,3.68-5.71,2.52,0,3.25,1.3,3.25,1.9,0,.85-.6,4.61-.6,7.53,0,2.01.28,3.62,1.25,3.62,1.47,0,2.18-5.69,2.26-6.51.03-.25.14-.37.28-.37.31,0,.76.57.76,1.1v.08c-.23,2.15-.71,7.64-3.88,7.64-2.6,0-4.3-2.89-4.3-7.13Z"/>
    <path class="st1" d="M166.26,82.33c.31,0,.79.57.79,1.13v.06c-.14,2.74-2.29,6.87-5.86,6.96h-.06c-2.07,0-3.34-1.56-3.34-3.39,0-.51.31-.82.48-.82.08,0,.14.06.14.2,0,.76.45,2.09,1.39,2.09.99,0,1.7-.99,1.7-2.55,0-1.84-1.25-3.62-2.29-5.12l-.17-.25c-.14,2.15-.34,3.54-.34,3.54,0,0,0,.11-.14.11-.34-.06-.93-.34-.93-.71v-.06s.23-1.67.37-4.55c-.14-.28-.2-.51-.2-.74,0-2.38,2.6-3.25,3.28-3.25s.96.28.96.9c0,.14-.25.79-.25,1.64,0,3.56,2.97,4.33,2.97,8.57,0,.45-.06.85-.14,1.22,1.05-1.27,1.27-3.11,1.39-4.64.03-.25.11-.34.26-.34h0Z"/>
  </g>
</svg>