<?xml version="1.0" encoding="UTF-8"?>
<svg id="Layer_1" xmlns="http://www.w3.org/2000/svg" version="1.1" viewBox="0 0 253.78 71.98">
  <!-- Generator: Adobe Illustrator 29.3.1, SVG Export Plug-In . SVG Version: 2.1.0 Build 151)  -->
  <defs>
    <style>
      .st0 {
        fill: #144a8f;
      }

      .st1 {
        fill: #eb2628;
      }
    </style>
  </defs>
  <g id="Color">
    <g id="Defense_Unicorns">
      <g id="Unicorns">
        <path class="st0" d="M145.18,24.5c0,2.65-1.03,5.13-2.02,7.5-.46,1.98-.81,4.28-.81,6.79,0,11.17,2.37,12.38,3.57,12.38.42,0,.71-.11,1.1-.25.04,0,.11.11.11.14,0,.32-.5.95-1.24.95-3.68,0-6.83-3.22-7.21-10.89-2.76,4.95-5.59,9.02-6.65,9.02-1.56,0-5.66-3.18-5.66-6.79,0-4.42,2.4-18.67,3.29-19.56.35-.35.71-.49,1.13-.49,1.45,0,3.11,1.8,3.11,2.76,0,.18-.04.28-.14.39-1.31,1.27-3.82,12.13-3.82,17.43,0,1.73.28,2.86.95,2.86,1.8,0,5.13-5.8,7.92-11.56.42-6.12,1.7-13.58,3.01-13.58,1.13,0,3.08.71,3.36,2.9h0Z"/>
        <path class="st0" d="M154.63,40.15c0-3.18.95-6.65.95-7.74,0-.21-.04-.35-.14-.35-.64,0-3.04,4.49-4.1,9.37-.04,2.58-.21,4.56-.21,4.56.11.11.18.39.18.67,0,.46-.18.95-.85.95-1.34,0-3.68-1.41-3.68-3.15s.95-2.76.95-10.68c0-1.91-1.38-2.97-1.38-3.39,0-.46.5-.88.88-.88.35,0,1.06.04,1.87.85,1.31,1.31,1.87,4.17,2.12,7.11,1.49-3.54,3.43-7.14,4.6-7.14,3.15,0,4.07,1.63,4.07,2.37,0,1.06-.74,5.76-.74,9.41,0,2.51.35,4.53,1.56,4.53,1.84,0,2.72-7.11,2.83-8.13.04-.32.18-.46.35-.46.39,0,.95.71.95,1.38v.11c-.28,2.69-.88,9.55-4.84,9.55-3.25,0-5.37-3.61-5.37-8.91Z"/>
        <path class="st0" d="M167.6,47.64c-.57,0-1.94-.71-2.94-1.7-.81-.81-1.13-3.75-1.13-6.75,0-3.47.42-7.04.95-7.53.25-.21.6-.32.95-.32.67,0,1.49.32,1.98.81.32.32.5.74.5,1.45,0,.5-.25.64-.25.64,0,0-.6,4.95-.6,8.17,0,1.56.14,2.72.57,2.72,2.02,0,2.55-3.64,2.72-4.99,0-.11.14-.18.32-.18.39,0,1.03.28,1.03.71,0,.46-.07,1.66-.46,2.97-.64,2.16-2.12,4-3.64,4h0ZM165.84,22.75c.42-.42,1.49-.81,2.02-.81,1.24,0,1.95.95,1.95,2.09,0,.21-.11.39-.21.49-.53.53-.71,2.9-2.26,2.9-.67,0-2.09-.95-2.09-2.65,0-1.17.18-1.59.6-2.02h0Z"/>
        <path class="st0" d="M170.32,39.55c0-6.54,3.15-9.16,6.47-9.16,2.02,0,3.43,1.03,3.43,2.62,0,2.23-1.38,5.02-2.44,5.02-.25,0-.35-.18-.35-.35,0-.07,0-.18.07-.21.35-.39.99-1.84.99-4,0-.99-.42-1.8-.95-1.8-1.13,0-3.82,2.05-3.82,8.38,0,3.39,1.77,5.76,4.03,5.76,3.29,0,4.07-5.27,4.21-6.47.04-.32.14-.46.32-.46.39,0,.99.71.99,1.41v.07c-.25,2.62-1.45,8.13-5.84,8.13s-7.11-3.93-7.11-8.95h0Z"/>
        <path class="st0" d="M200.78,44.81c0,1.73.67,1.94,1.1,1.94,1.45,0,2.65-5.69,2.76-6.79.04-.32.18-.46.35-.46.39,0,.96.6.96,1.27v.18c-.28,2.62-1.27,7.85-4.6,7.85-3.57,0-4.35-3.04-4.35-5.84s1.17-7.43,1.17-8.35c0-.64-.57-1.1-1.27-1.49-.71,4.7-3.08,7.18-5.09,7.5-.71,4.28-2.51,7.67-4.77,7.67-2.02,0-5.09-2.58-5.09-7.39s1.77-10.43,5.98-10.43c2.19,0,3.57,1.17,3.57,2.44,0,.85-.14,1.27-.35,1.52.74.35.99,1.31.99,2.26,0,.81-.04,1.59-.11,2.37,1.45-.28,3.32-2.55,3.61-6.61-.96-.5-1.84-1.06-1.84-1.87s1.24-1.38,2.19-1.38c.64,0,1.13.25,1.13.88,0,.46,0,.88-.04,1.27,1.87.71,4.99,2.02,4.99,4.24,0,1.2-1.27,7.28-1.27,9.19h0ZM190.28,34.35c-.04-.67-.21-1.87-1.1-1.87-2.02,0-3.32,4.99-3.32,8.73,0,2.26.46,4.07,1.56,4.07.99,0,2.05-2.58,2.58-4.99-.78-.57-1.34-1.63-1.34-3.25,0-1.31.74-2.55,1.63-2.69h0ZM190.35,36.33s-.04.42-.04.78c0,.18,0,.28.04.42v-1.2Z"/>
        <path class="st0" d="M211.85,40.15c0-3.18.95-6.65.95-7.74,0-.21-.04-.35-.14-.35-.64,0-3.04,4.49-4.1,9.37-.04,2.58-.21,4.56-.21,4.56.11.11.18.39.18.67,0,.46-.18.95-.85.95-1.34,0-3.68-1.41-3.68-3.15s.95-2.76.95-10.68c0-1.91-1.38-2.97-1.38-3.39,0-.46.5-.88.88-.88.35,0,1.06.04,1.87.85,1.31,1.31,1.88,4.17,2.12,7.11,1.49-3.54,3.43-7.14,4.6-7.14,3.15,0,4.07,1.63,4.07,2.37,0,1.06-.74,5.76-.74,9.41,0,2.51.35,4.53,1.56,4.53,1.84,0,2.72-7.11,2.83-8.13.04-.32.18-.46.35-.46.39,0,.96.71.96,1.38v.11c-.28,2.69-.89,9.55-4.85,9.55-3.25,0-5.37-3.61-5.37-8.91Z"/>
        <path class="st0" d="M231.35,38.66c.39,0,.99.71.99,1.42v.07c-.18,3.43-2.87,8.59-7.32,8.7h-.07c-2.58,0-4.17-1.94-4.17-4.24,0-.64.39-1.03.6-1.03.11,0,.18.07.18.25,0,.95.57,2.62,1.73,2.62,1.24,0,2.12-1.24,2.12-3.18,0-2.3-1.56-4.53-2.86-6.4l-.21-.32c-.18,2.69-.43,4.42-.43,4.42,0,0,0,.14-.18.14-.43-.07-1.17-.43-1.17-.88v-.07s.28-2.09.46-5.69c-.18-.35-.25-.64-.25-.92,0-2.97,3.25-4.07,4.1-4.07s1.2.35,1.2,1.13c0,.18-.32.99-.32,2.05,0,4.46,3.71,5.41,3.71,10.72,0,.57-.07,1.06-.18,1.52,1.31-1.59,1.59-3.89,1.73-5.8.04-.32.14-.42.32-.42h0Z"/>
      </g>
      <g id="Defense">
        <path class="st1" d="M35.49,44.07c0,.96.14,1.64.32,2.14h.46c1.28,0,7.33-3.85,7.33-12.21,0-7.91-5.73-12.04-9.51-12.04-4.42,0-8.3,3.77-8.3,10.5,0,4.31,1.96,6.23,2.92,6.23s.85-.43,1.14-.43c.75,0,.07,1.21-.96,1.21-3.1,0-8.23-1.53-8.23-8.08,0-5.45,4.13-11.29,11.47-11.29,8.58,0,15.35,6.62,15.35,14.85s-5.2,15.2-8.94,15.2c-1.32,0-2.74-.71-3.74-1.64-.85-.04-1.85-.32-2.42-.89-.93-.96-1.03-3.42-1.03-4.91,0-4.95.75-13.21,2.96-13.21,2.49,0,3.45,1.14,3.45,1.53,0,1-2.28,1.92-2.28,13.03h0Z"/>
        <path class="st1" d="M59.89,39.05c.04-.32.18-.46.36-.46.39,0,.96.68.96,1.42,0,3.35-2.46,7.91-6.02,7.91-4.59,0-6.59-4.13-6.59-8.47,0-6.34,2.28-8.94,5.31-8.94,0-.85.64-1,1-1,1.99,0,2.71,1.39,2.71,4.17,0,4.38-2.99,7.73-5.2,7.73h-.32c.5,1.71,1.6,3.38,3.77,3.38,2.53,0,3.74-2.88,4.02-5.73ZM54.51,31.89c-1.39.29-2.71,2.88-2.71,7.3,0,.25.04.53.04.78.85-.11,3.03-2.21,3.03-6.05,0-1-.18-1.6-.36-2.03h0Z"/>
        <path class="st1" d="M63.13,30.96c1.39-6.23,3.85-8.9,7.23-8.9,1.42,0,2.71.82,2.71,1.67,0,2.21-4.06,6.23-4.59,6.23-.07,0-.11-.07-.11-.14,0-.5,2.28-3.13,2.28-5.59,0-.32-.14-.5-.43-.5-.89,0-2.78,1.39-3.88,7.3,2.46-.11,5.38-.71,5.56-.71.29,0,.5.29.5.68,0,.71-2.88,1.6-6.37,1.99-.32,2.56-.53,5.77-.53,9.79,0,6.2,1.21,6.59,1.21,7.37,0,.32-.36.53-.89.53-1.67,0-3.92-1.17-3.92-4.66,0-5.2.29-9.44.82-12.82h-.39c-.96,0-1.85-1.53-1.85-1.99,0-.36.5-1.07.85-1.07.07,0,.14.04.21.11.25.29-.11.57,1.6.71h0Z"/>
        <path class="st1" d="M81.84,39.05c.04-.32.18-.46.36-.46.39,0,.96.68.96,1.42,0,3.35-2.46,7.91-6.02,7.91-4.59,0-6.59-4.13-6.59-8.47,0-6.34,2.28-8.94,5.31-8.94,0-.85.64-1,1-1,1.99,0,2.71,1.39,2.71,4.17,0,4.38-2.99,7.73-5.2,7.73h-.32c.5,1.71,1.6,3.38,3.78,3.38,2.53,0,3.74-2.88,4.02-5.73ZM76.46,31.89c-1.39.29-2.71,2.88-2.71,7.3,0,.25.04.53.04.78.85-.11,3.03-2.21,3.03-6.05,0-1-.18-1.6-.36-2.03h0Z"/>
        <path class="st1" d="M89.02,40.12c0-3.2.96-6.69.96-7.8,0-.21-.04-.36-.14-.36-.64,0-3.06,4.52-4.13,9.44-.04,2.6-.21,4.59-.21,4.59.11.11.18.39.18.68,0,.46-.18.96-.85.96-1.35,0-3.7-1.42-3.7-3.17s.96-2.78.96-10.75c0-1.92-1.39-2.99-1.39-3.42,0-.46.5-.89.89-.89.36,0,1.07.04,1.89.85,1.32,1.32,1.89,4.2,2.14,7.16,1.5-3.56,3.45-7.19,4.63-7.19,3.17,0,4.1,1.64,4.1,2.39,0,1.07-.75,5.8-.75,9.47,0,2.53.36,4.56,1.57,4.56,1.85,0,2.74-7.16,2.85-8.19.04-.32.18-.46.36-.46.39,0,.96.71.96,1.39v.11c-.29,2.71-.89,9.61-4.88,9.61-3.28,0-5.41-3.63-5.41-8.97h0Z"/>
        <path class="st1" d="M108.66,38.62c.39,0,1,.71,1,1.42v.07c-.18,3.45-2.88,8.65-7.37,8.76h-.07c-2.6,0-4.2-1.96-4.2-4.27,0-.64.39-1.03.61-1.03.11,0,.18.07.18.25,0,.96.57,2.64,1.74,2.64,1.25,0,2.14-1.25,2.14-3.21,0-2.31-1.57-4.56-2.88-6.45l-.21-.32c-.18,2.71-.43,4.45-.43,4.45,0,0,0,.14-.18.14-.43-.07-1.18-.43-1.18-.89v-.07s.29-2.1.46-5.73c-.18-.36-.25-.64-.25-.93,0-2.99,3.28-4.1,4.13-4.1s1.21.36,1.21,1.14c0,.18-.32,1-.32,2.06,0,4.49,3.74,5.45,3.74,10.79,0,.57-.07,1.07-.18,1.53,1.32-1.6,1.6-3.92,1.75-5.84.04-.32.14-.43.32-.43h0Z"/>
        <path class="st1" d="M119.48,39.05c.04-.32.18-.46.36-.46.39,0,.96.68.96,1.42,0,3.35-2.46,7.91-6.02,7.91-4.59,0-6.59-4.13-6.59-8.47,0-6.34,2.28-8.94,5.31-8.94,0-.85.64-1,1-1,1.99,0,2.71,1.39,2.71,4.17,0,4.38-2.99,7.73-5.2,7.73h-.32c.5,1.71,1.6,3.38,3.77,3.38,2.53,0,3.74-2.88,4.02-5.73ZM114.1,31.89c-1.39.29-2.71,2.88-2.71,7.3,0,.25.04.53.04.78.85-.11,3.03-2.21,3.03-6.05,0-1-.18-1.6-.36-2.03h0Z"/>
      </g>
    </g>
  </g>
</svg>